<?xml version="1.0" encoding="UTF-8" standalone="no"?>
<svg
   xmlns:dc="http://purl.org/dc/elements/1.1/"
   xmlns:cc="http://creativecommons.org/ns#"
   xmlns:rdf="http://www.w3.org/1999/02/22-rdf-syntax-ns#"
   xmlns:svg="http://www.w3.org/2000/svg"
   xmlns="http://www.w3.org/2000/svg"
   xmlns:sodipodi="http://sodipodi.sourceforge.net/DTD/sodipodi-0.dtd"
   xmlns:inkscape="http://www.inkscape.org/namespaces/inkscape"
   inkscape:version="1.0beta2 (2b71d25, 2019-12-03)"
   sodipodi:docname="postcyber.svg"
   id="svg4230"
   version="1.1"
   viewBox="0 0 210 297"
   height="297mm"
   width="210mm">
  <defs
     id="defs4224" />
  <sodipodi:namedview
     inkscape:window-maximized="0"
     inkscape:window-y="23"
     inkscape:window-x="0"
     inkscape:window-height="929"
     inkscape:window-width="1680"
     inkscape:snap-global="true"
     inkscape:snap-grids="true"
     inkscape:snap-others="true"
     inkscape:object-nodes="true"
     inkscape:snap-intersection-paths="false"
     inkscape:guide-bbox="true"
     showguides="true"
     inkscape:snap-smooth-nodes="false"
     showgrid="false"
     inkscape:document-rotation="0"
     inkscape:current-layer="layer1"
     inkscape:document-units="mm"
     inkscape:cy="1306.6171"
     inkscape:cx="1011.8774"
     inkscape:zoom="0.35"
     inkscape:pageshadow="2"
     inkscape:pageopacity="0.0"
     borderopacity="1.0"
     bordercolor="#666666"
     pagecolor="#ffffff"
     id="base">
    <inkscape:grid
       id="grid4817"
       type="xygrid" />
    <sodipodi:guide
       id="guide4935"
       orientation="927.8643,392.47752"
       position="127.22929,202.11927" />
    <sodipodi:guide
       id="guide4937"
       orientation="927.8643,392.47752"
       position="113.78136,185.32064" />
    <sodipodi:guide
       id="guide4939"
       orientation="927.8643,392.47752"
       position="100.33343,168.52201" />
    <sodipodi:guide
       id="guide4941"
       orientation="927.8643,392.47752"
       position="100.33343,168.52201" />
    <sodipodi:guide
       id="guide4943"
       orientation="927.8643,392.47752"
       position="86.8855,151.72338" />
    <sodipodi:guide
       id="guide4945"
       orientation="927.8643,392.47752"
       position="73.43757,134.92475" />
    <sodipodi:guide
       id="guide4947"
       orientation="927.8643,392.47752"
       position="100.33343,168.52201" />
    <sodipodi:guide
       id="guide4949"
       orientation="927.8643,392.47752"
       position="86.8855,151.72338" />
    <sodipodi:guide
       id="guide4951"
       orientation="927.8643,392.47752"
       position="73.43757,134.92475" />
    <sodipodi:guide
       id="guide4953"
       orientation="927.8643,392.47752"
       position="73.43757,134.92475" />
    <sodipodi:guide
       id="guide4955"
       orientation="927.8643,392.47752"
       position="59.98964,118.12612" />
    <sodipodi:guide
       id="guide4957"
       orientation="927.8643,392.47752"
       position="46.54171,101.32749" />
    <sodipodi:guide
       id="guide4959"
       orientation="927.8643,392.47752"
       position="181.02101,269.31379" />
    <sodipodi:guide
       id="guide4961"
       orientation="927.8643,392.47752"
       position="181.02101,269.31379" />
    <sodipodi:guide
       id="guide4963"
       orientation="927.8643,392.47752"
       position="167.57308,252.51516" />
    <sodipodi:guide
       id="guide4965"
       orientation="927.8643,392.47752"
       position="154.12515,235.71653" />
    <sodipodi:guide
       id="guide4967"
       orientation="927.8643,392.47752"
       position="181.02101,269.31379" />
    <sodipodi:guide
       id="guide4969"
       orientation="927.8643,392.47752"
       position="167.57308,252.51516" />
    <sodipodi:guide
       id="guide4971"
       orientation="927.8643,392.47752"
       position="154.12515,235.71653" />
    <sodipodi:guide
       id="guide4973"
       orientation="927.8643,392.47752"
       position="154.12515,235.71653" />
    <sodipodi:guide
       id="guide4975"
       orientation="0.92090103,0.38979648"
       position="140.67722,218.9179" />
    <sodipodi:guide
       id="guide4977"
       orientation="927.86429,-392.47752"
       position="140.45756,282.14849" />
    <sodipodi:guide
       id="guide4979"
       orientation="927.86429,-392.47752"
       position="153.90549,265.34986" />
    <sodipodi:guide
       id="guide4981"
       orientation="927.86429,-392.47752"
       position="167.35342,248.55123" />
    <sodipodi:guide
       id="guide4983"
       orientation="927.86429,-392.47752"
       position="167.35342,248.55123" />
    <sodipodi:guide
       id="guide4985"
       orientation="927.86429,-392.47752"
       position="180.80135,231.7526" />
    <sodipodi:guide
       id="guide4987"
       orientation="927.86429,-392.47752"
       position="194.24928,214.95397" />
    <sodipodi:guide
       id="guide4989"
       orientation="927.86429,-392.47752"
       position="167.35342,248.55123" />
    <sodipodi:guide
       id="guide4991"
       orientation="927.86429,-392.47752"
       position="180.80135,231.7526" />
    <sodipodi:guide
       id="guide4993"
       orientation="927.86429,-392.47752"
       position="194.24928,214.95397" />
    <sodipodi:guide
       id="guide4995"
       orientation="927.86429,-392.47752"
       position="194.24928,214.95397" />
    <sodipodi:guide
       id="guide4997"
       orientation="0.92061902,-0.39046207"
       position="207.69721,198.15534" />
    <sodipodi:guide
       id="guide4999"
       orientation="927.8643,-392.47752"
       position="221.14514,181.35671" />
    <sodipodi:guide
       id="guide5001"
       orientation="927.86429,-392.47752"
       position="86.66584,349.34301" />
    <sodipodi:guide
       id="guide5003"
       orientation="927.86429,-392.47752"
       position="86.66584,349.34301" />
    <sodipodi:guide
       id="guide5005"
       orientation="927.86429,-392.47752"
       position="100.11377,332.54438" />
    <sodipodi:guide
       id="guide5007"
       orientation="927.86429,-392.47752"
       position="113.5617,315.74575" />
    <sodipodi:guide
       id="guide5009"
       orientation="927.86429,-392.47752"
       position="86.66584,349.34301" />
    <sodipodi:guide
       id="guide5011"
       orientation="927.86429,-392.47752"
       position="113.5617,315.74575" />
    <sodipodi:guide
       id="guide5013"
       orientation="927.86429,-392.47752"
       position="113.5617,315.74575" />
    <sodipodi:guide
       id="guide5015"
       orientation="927.86429,-392.47752"
       position="127.00963,298.94712" />
    <sodipodi:guide
       id="guide5023"
       orientation="0,-543.7799"
       position="-52.384828,226.17358" />
    <sodipodi:guide
       id="guide5027"
       orientation="0,77.68286"
       position="106.64084,105.01936" />
    <sodipodi:guide
       id="guide5031"
       orientation="0,310.73139"
       position="34.703292,129.31494" />
    <sodipodi:guide
       id="guide5035"
       orientation="0,310.73137"
       position="24.426498,153.61052" />
    <sodipodi:guide
       id="guide5039"
       orientation="0,77.682852"
       position="55.256876,177.90611" />
    <sodipodi:guide
       id="guide5043"
       orientation="0,77.682849"
       position="65.533669,202.20169" />
    <sodipodi:guide
       id="guide5047"
       orientation="0,77.682849"
       position="44.980084,250.79285" />
    <sodipodi:guide
       id="guide5051"
       orientation="0,77.682852"
       position="55.256876,80.72378" />
    <sodipodi:guide
       id="guide5055"
       orientation="550.95492,7.5590551e-06"
       position="44.980082,250.79285" />
    <sodipodi:guide
       id="guide5059"
       orientation="183.65167,-3.7795276e-06"
       position="24.4265,202.20169" />
    <sodipodi:guide
       id="guide5063"
       orientation="183.65162,-7.5590551e-06"
       position="65.533671,299.38401" />
    <sodipodi:guide
       id="guide5067"
       orientation="183.65161,0"
       position="75.810464,275.08843" />
    <sodipodi:guide
       id="guide5071"
       orientation="183.65165,-7.5590551e-06"
       position="86.087258,250.79285" />
    <sodipodi:guide
       id="guide5075"
       orientation="183.65162,0"
       position="106.64084,299.38401" />
    <sodipodi:guide
       id="guide5079"
       orientation="183.65163,0"
       position="116.91764,275.08843" />
  </sodipodi:namedview>
  <metadata
     id="metadata4227">
    <rdf:RDF>
      <cc:Work
         rdf:about="">
        <dc:format>image/svg+xml</dc:format>
        <dc:type
           rdf:resource="http://purl.org/dc/dcmitype/StillImage" />
      </cc:Work>
    </rdf:RDF>
  </metadata>
  <g
     id="layer1"
     inkscape:groupmode="layer"
     inkscape:label="Layer 1">
    <path
       style="font-size:10.5833px;line-height:1.25;font-family:fira;-inkscape-font-specification:fira;fill:#803300;stroke-width:0.0185219"
       d="m 169.53151,193.95604 -1.93737,-0.24297 -2.58661,-0.65388 -2.58662,-0.65387 -1.81861,-0.68453 -1.81861,-0.68452 -2.35875,-1.18959 -2.35875,-1.1896 -1.94337,-1.34344 -1.94336,-1.34345 -2.05529,-1.79311 -2.05528,-1.79312 -1.55484,-1.85267 -1.55484,-1.85268 -1.30957,-1.94685 -1.30957,-1.94686 -1.27959,-2.64583 -1.27959,-2.64583 -1.97517,-4.63021 -1.97517,-4.63021 -6.5224,-16.36399 -6.5224,-16.36399 -2.39758,-5.57821 -2.39758,-5.5782 -2.20923,-4.66907 -2.20922,-4.66907 -1.24023,-2.36061 -1.24023,-2.36061 -1.65691,-2.51466 -1.65691,-2.51467 -1.98157,-2.24785 -1.98157,-2.247826 -1.02396,-0.969711 -1.023954,-0.969709 -2.458929,-1.83723 -2.458929,-1.837231 -2.601852,-1.36065 -2.601838,-1.36064 -2.744441,-0.89084 -2.74443,-0.89084 -1.852081,-0.36554 -1.852088,-0.36553 -4.630201,0.0109 -4.630211,0.011 -2.248958,0.48226 -2.248961,0.48226 -2.285801,0.74619 -2.285788,0.74619 -2.476712,1.2435 -2.476698,1.2435 -1.5875,1.0649 -1.5875,1.06491 -2.14326,1.78996 -2.14326,1.789969 -1.71495,2.070558 -1.71495,2.07058 -1.067231,1.5875 -1.067231,1.5875 -1.24349,2.47671 -1.2435,2.4767 -0.74619,2.2858 -0.74619,2.28579 -0.48458,2.24896 -0.48458,2.24896 -0.005,4.7625 -0.005,4.7625 0.46596,2.30447 0.46595,2.30447 0.67482,2.06116 0.67482,2.06115 1.40925,2.91042 1.40924,2.91041 1.650951,2.31665 1.650962,2.31664 2.82158,2.726 2.821589,2.72601 2.23425,1.46988 2.23426,1.46989 1.70697,0.86039 1.706981,0.86038 2.45858,0.88997 2.458578,0.88997 2.699819,0.55019 2.699822,0.55018 3.056498,0.14633 3.056501,0.14633 3.119811,-0.41397 3.119818,-0.41396 2.508801,-0.71196 2.50879,-0.71197 0.084,0.10403 0.084,0.10402 2.007148,4.7625 2.007161,4.7625 1.706729,4.01055 1.706721,4.01054 -1.48903,0.5726 -1.48903,0.5726 -3.012911,0.77943 -3.012908,0.77943 -2.41105,0.40806 -2.41105,0.40806 -4.502611,0.15286 -4.502621,0.15285 -3.113209,-0.32097 -3.11322,-0.32098 -3.063501,-0.63527 -3.063509,-0.63527 -3.149849,-1.07196 -3.149841,-1.07195 -2.77713,-1.30008 -2.77712,-1.30007 -2.27172,-1.37219 -2.271721,-1.37218 -2.553221,-1.90038 -2.55323,-1.90039 -2.46799,-2.34888 -2.46799,-2.34887 -2.01178,-2.39772 -2.01178,-2.39773 -1.832659,-2.77813 -1.83266,-2.77812 -1.68047,-3.43959 -1.68046,-3.43958 -1.03376,-3.04271 -1.03375,-3.04271 -0.5514,-2.38125 -0.55141,-2.38125 -0.43752,-3.175 -0.43752,-3.175 0.1324,-5.55625 0.1324,-5.55625 0.4362,-2.38125 0.4362,-2.38125 0.77352,-2.93199 0.77353,-2.932 0.93033,-2.43787 0.93033,-2.43788 1.60623,-3.150526 1.60623,-3.150521 1.71527,-2.5655 1.71527,-2.56551 1.68022,-2.01098 1.68022,-2.01098 2.7414,-2.656 2.7414,-2.65601 2.19067,-1.66134 2.19066,-1.661341 2.064122,-1.28021 2.064121,-1.28021 2.693619,-1.35172 2.69362,-1.35172 2.0115,-0.79905 2.01149,-0.79905 2.81406,-0.791699 2.814061,-0.79171 2.910408,-0.55057 2.910422,-0.55057 5.318537,-0.13616 5.318533,-0.13616 2.751259,0.3152 2.751249,0.31521 2.452931,0.52664 2.45292,0.52665 2.044999,0.61422 2.044991,0.61421 2.38125,0.92197 2.38125,0.92197 2.645833,1.32962 2.64583,1.32963 2.77813,1.83366 2.77812,1.83366 2.38126,1.98831 2.38125,1.98832 2.38988,2.50687 2.38988,2.50688 1.61178,2.139 1.61178,2.139 1.45998,2.360221 1.45997,2.36021 0.86128,1.702498 0.86129,1.702488 3.0921,7.27605 3.0921,7.27604 6.83588,16.09212 6.83588,16.09211 0.23182,-0.41424 0.23183,-0.41424 2.60263,-6.15288 2.60263,-6.15287 13.53074,-31.85073 13.53075,-31.850737 0.23977,-0.42843 0.23977,-0.42844 0.25308,0.66146 0.25308,0.66146 4.8391,11.37708 4.83911,11.37708 -0.0291,0.39688 -0.029,0.39687 -13.21114,31.088557 -13.21115,31.08854 -3.23191,7.62143 -3.23191,7.62142 1.08321,1.82332 1.08321,1.82331 1.28828,1.32263 1.28829,1.32264 1.6641,1.07556 1.6641,1.07556 2.01741,0.6373 2.01741,0.6373 1.83979,0.17038 1.8398,0.17039 2.14405,-0.38543 2.14404,-0.38543 2.20644,-0.95617 2.20643,-0.95617 0.19868,0.20036 0.19868,0.20035 2.89634,7.01146 2.89633,7.01145 0.6693,1.64723 0.6693,1.64723 -2.82313,0.91114 -2.82313,0.91114 -2.24896,0.43927 -2.24896,0.43927 -3.96875,0.0948 -3.96875,0.0948 -1.93737,-0.24297 z"
       id="path4148"
       inkscape:connector-curvature="0"
       inkscape:export-filename="/Users/lopoc/Documents/postcyber/pc.png"
       inkscape:export-xdpi="13.05223"
       inkscape:export-ydpi="13.05223" />
    <path
       inkscape:connector-curvature="0"
       id="path5017"
       d="m 178.57839,70.502734 10.2768,24.295581 -30.83038,72.886745 -10.27679,-24.29558 z"
       style="fill:#d40000;stroke:#000000;stroke-width:0.26458300000000001px;stroke-linecap:butt;stroke-linejoin:miter;stroke-opacity:1;fill-opacity:1" />
    <path
       sodipodi:nodetypes="cccc"
       inkscape:connector-curvature="0"
       id="path5083"
       d="m 137.47122,167.68506 20.55359,0 -10.27679,-24.29558 z"
       style="fill:#d40000;stroke:#000000;stroke-width:0.26458300000000001px;stroke-linecap:butt;stroke-linejoin:miter;stroke-opacity:1;fill-opacity:1" />
    <path
       inkscape:connector-curvature="0"
       id="path5091"
       d="M 188.85519,191.98064 168.3016,143.38948"
       style="fill:none;stroke:#000000;stroke-width:0.264583px;stroke-linecap:butt;stroke-linejoin:miter;stroke-opacity:1" />
    <path
       inkscape:connector-curvature="0"
       d="m 158.27767,167.58822 -17.60409,7.56543 a 36.844501,36.844501 0 0 0 32.69775,19.86184 36.844501,36.844501 0 0 0 15.35048,-3.35019 l -7.39748,-17.48834 a 17.806499,17.806499 0 0 1 -7.9034,1.85054 17.806499,17.806499 0 0 1 -15.14326,-8.43928 z"
       style="fill:#d40000;fill-opacity:1;stroke:none;stroke-width:0.94729;stroke-linejoin:round;stroke-dashoffset:37.7952"
       id="path5139" />
    <path
       sodipodi:nodetypes="ccccc"
       inkscape:connector-curvature="0"
       id="path5019"
       d="m 147.74801,143.38948 -10.27679,24.29558 -30.83037,-72.886749 20.55358,0 c 17.12799,40.492629 3.4256,8.098529 20.55358,48.591169 z"
       style="fill:#d40000;stroke:#000000;stroke-width:0.264583px;stroke-linecap:butt;stroke-linejoin:miter;stroke-opacity:1" />
    <path
       style="fill:none;stroke:#000000;stroke-width:0.264583px;stroke-linecap:butt;stroke-linejoin:miter;stroke-opacity:1"
       d="m 158.02481,167.68506 73.24027,-31.42414"
       id="path5097"
       inkscape:connector-curvature="0" />
    <circle
       style="fill:#d40000;fill-opacity:1;stroke:none;stroke-width:1.58033;stroke-linejoin:round;stroke-dashoffset:37.7952"
       id="circle5125"
       cx="77.210617"
       cy="120.49401"
       r="56.297787" />
    <circle
       r="37.021"
       cy="120.49401"
       cx="77.210617"
       id="path5123"
       style="fill:#ffffff;fill-opacity:1;stroke:none;stroke-width:1.03921;stroke-linejoin:round;stroke-dashoffset:37.7952" />
    <path
       inkscape:connector-curvature="0"
       id="path5127"
       d="m 75.810466,119.09389 30.830374,72.88676"
       style="fill:none;stroke:#000000;stroke-width:0.264583px;stroke-linecap:butt;stroke-linejoin:miter;stroke-opacity:1" />
    <path
       style="fill:none;stroke:#000000;stroke-width:0.264583px;stroke-linecap:butt;stroke-linejoin:miter;stroke-opacity:1"
       d="M 148.69722,88.26351 75.810466,119.09389"
       id="path5129"
       inkscape:connector-curvature="0" />
    <path
       inkscape:connector-curvature="0"
       id="path5131"
       d="M 86.087258,46.20715 160.48038,222.0815"
       style="fill:none;stroke:#000000;stroke-width:0.264583px;stroke-linecap:butt;stroke-linejoin:miter;stroke-opacity:1" />
    <path
       inkscape:connector-curvature="0"
       id="path5133"
       d="M 110.67894,104.34487 158.02481,216.27622 106.64084,191.98064 75.810464,119.0939 Z"
       style="fill:#ffffff;stroke:#000000;stroke-width:0.26458300000000001px;stroke-linecap:butt;stroke-linejoin:miter;stroke-opacity:1" />
    <path
       inkscape:connector-curvature="0"
       id="path5135"
       d="m 188.85519,94.79831 10.4137,-23.97189 -10.4137,-24.619269 -10.13988,24.61927 z"
       style="fill:none;stroke:#000000;stroke-width:0.264583px;stroke-linecap:butt;stroke-linejoin:miter;stroke-opacity:1" />
    <path
       inkscape:connector-curvature="0"
       id="path5149"
       d="m 137.47122,167.68506 3.20236,7.46859 17.35123,-7.46859 z"
       style="fill:#d40000;stroke:#000000;stroke-width:0.26458300000000001px;stroke-linecap:butt;stroke-linejoin:miter;stroke-opacity:1;fill-opacity:1" />
    <path
       style="fill:#d40000;fill-opacity:1;stroke:#000000;stroke-width:0.264583px;stroke-linecap:butt;stroke-linejoin:miter;stroke-opacity:1"
       d="m -195.61804,301.06821 10.2768,24.29558 -30.83038,72.88675 -10.27679,-24.29558 z"
       id="path5176"
       inkscape:connector-curvature="0" />
    <path
       style="fill:#d40000;fill-opacity:1;stroke:#000000;stroke-width:0.264583px;stroke-linecap:butt;stroke-linejoin:miter;stroke-opacity:1"
       d="m -236.72521,398.25054 h 20.55359 l -10.27679,-24.29558 z"
       id="path5178"
       inkscape:connector-curvature="0"
       sodipodi:nodetypes="cccc" />
    <path
       style="fill:none;stroke:#000000;stroke-width:0.264583px;stroke-linecap:butt;stroke-linejoin:miter;stroke-opacity:1"
       d="m -185.34124,422.54612 -20.55359,-48.59116"
       id="path5180"
       inkscape:connector-curvature="0" />
    <path
       id="path5182"
       style="fill:#d40000;fill-opacity:1;stroke:none;stroke-width:0.94729;stroke-linejoin:round;stroke-dashoffset:37.7952"
       d="m -215.91876,398.1537 -17.60409,7.56543 a 36.844501,36.844501 0 0 0 32.69775,19.86184 36.844501,36.844501 0 0 0 15.35048,-3.35019 l -7.39748,-17.48834 a 17.806499,17.806499 0 0 1 -7.9034,1.85054 17.806499,17.806499 0 0 1 -15.14326,-8.43928 z"
       inkscape:connector-curvature="0" />
    <path
       style="fill:#d40000;stroke:#000000;stroke-width:0.264583px;stroke-linecap:butt;stroke-linejoin:miter;stroke-opacity:1"
       d="m -226.44842,373.95496 -10.27679,24.29558 -30.83037,-72.88675 h 20.55358 c 17.12799,40.49263 3.4256,8.09853 20.55358,48.59117 z"
       id="path5184"
       inkscape:connector-curvature="0"
       sodipodi:nodetypes="ccccc" />
    <path
       inkscape:connector-curvature="0"
       id="path5186"
       d="m -216.17162,398.25054 73.24027,-31.42414"
       style="fill:none;stroke:#000000;stroke-width:0.264583px;stroke-linecap:butt;stroke-linejoin:miter;stroke-opacity:1" />
    <circle
       r="56.297787"
       cy="351.05948"
       cx="-296.98581"
       id="circle5188"
       style="fill:#d40000;fill-opacity:1;stroke:none;stroke-width:1.58033;stroke-linejoin:round;stroke-dashoffset:37.7952" />
    <circle
       style="fill:#ffffff;fill-opacity:1;stroke:none;stroke-width:1.03921;stroke-linejoin:round;stroke-dashoffset:37.7952"
       id="circle5190"
       cx="-296.98581"
       cy="351.05948"
       r="37.021" />
    <path
       style="fill:none;stroke:#000000;stroke-width:0.264583px;stroke-linecap:butt;stroke-linejoin:miter;stroke-opacity:1"
       d="m -298.38596,349.65937 30.83037,72.88676"
       id="path5192"
       inkscape:connector-curvature="0" />
    <path
       inkscape:connector-curvature="0"
       id="path5194"
       d="m -225.49921,318.82899 -72.88675,30.83038"
       style="fill:none;stroke:#000000;stroke-width:0.264583px;stroke-linecap:butt;stroke-linejoin:miter;stroke-opacity:1" />
    <path
       style="fill:none;stroke:#000000;stroke-width:0.264583px;stroke-linecap:butt;stroke-linejoin:miter;stroke-opacity:1"
       d="m -288.10917,276.77263 74.39312,175.87435"
       id="path5196"
       inkscape:connector-curvature="0" />
    <path
       style="fill:#ffffff;stroke:#000000;stroke-width:0.264583px;stroke-linecap:butt;stroke-linejoin:miter;stroke-opacity:1"
       d="m -263.51749,334.91035 47.34587,111.93135 -51.38397,-24.29558 -30.83037,-72.88674 z"
       id="path5198"
       inkscape:connector-curvature="0" />
    <path
       style="fill:#d40000;fill-opacity:1;stroke:#000000;stroke-width:0.264583px;stroke-linecap:butt;stroke-linejoin:miter;stroke-opacity:1"
       d="m -236.72521,398.25054 3.20236,7.46859 17.35123,-7.46859 z"
       id="path5202"
       inkscape:connector-curvature="0" />
    <path
       sodipodi:nodetypes="ccccccsccccccccccccccsccc"
       inkscape:connector-curvature="0"
       transform="scale(0.26458333)"
       d="m 1636.9395,996.91797 c -117.2814,0.3282 -212.1831,95.49553 -212.1836,212.77733 -1e-4,117.514 95.2633,212.7783 212.7773,212.7793 27.5307,-2e-4 54.7998,-5.3431 80.2949,-15.7324 l -28.3867,-67.1113 c -16.5111,6.5966 -34.1281,9.9858 -51.9082,9.9863 -77.2767,0 -139.9219,-62.6452 -139.9219,-139.9219 0,-77.2767 62.6452,-139.9219 139.9219,-139.9219 53.7002,2e-4 102.6628,30.7335 126.0078,79.0938 23.5849,52.8925 46.2064,107.9008 65.5156,153.5273 l 36.2344,85.6621 12.1035,28.2266 c 23.9569,46.1248 71.6068,75.0692 123.5821,75.0684 20.0246,-2e-4 39.8137,-4.3191 58.0175,-12.6621 l -27.9589,-66.0977 c -9.2858,4.6 -19.5084,6.9936 -29.8711,6.9941 -23.3152,-3e-4 -45.9263,-11.7009 -58.1914,-31.5293 l 116.5253,-275.4785 -38.8418,-91.8261 -116.5234,275.4785 c -53.06,-125.4404 -38.8497,-91.8467 -63.6719,-150.5293 0,0 45.9122,107.2762 0,-0.01 -42.3324,-98.9211 -110.0661,-148.77329 -202.9238,-148.77343 -0.1979,-2.8e-4 -0.3958,-2.8e-4 -0.5937,0 z"
       style="fill:#d40000;fill-opacity:1;stroke:none;stroke-width:0.999999px;stroke-linecap:butt;stroke-linejoin:miter;stroke-opacity:1"
       id="path5204" />
  </g>
</svg>
